Coordinates
version=1
nRows=13
nColumns=40
inDegrees=yes

Units are S.I. units (second, meters, Newtons, ...)
If the header above contains a line with 'inDegrees', this indicates whether rotational values are in degrees (yes) or radians (no).

endheader
time	pelvis_tilt	pelvis_list	pelvis_rotation	pelvis_tx	pelvis_ty	pelvis_tz	hip_flexion_r	hip_adduction_r	hip_rotation_r	knee_angle_r	knee_angle_r_beta	ankle_angle_r	subtalar_angle_r	mtp_angle_r	hip_flexion_l	hip_adduction_l	hip_rotation_l	knee_angle_l	knee_angle_l_beta	ankle_angle_l	subtalar_angle_l	mtp_angle_l	lumbar_extension	lumbar_bending	lumbar_rotation	arm_flex_r	arm_add_r	arm_rot_r	elbow_flex_r	pro_sup_r	wrist_flex_r	wrist_dev_r	arm_flex_l	arm_add_l	arm_rot_l	elbow_flex_l	pro_sup_l	wrist_flex_l	wrist_dev_l
      4.07500000	    -30.90030376	     13.18031596	      0.24137782	     -0.32469442	      0.80739993	     -1.05820168	     32.65888449	    -20.35519331	      3.73861387	    115.83015566	      2.02161759	    -18.89104010	      0.00000000	      0.00000000	     77.23022115	      7.31419250	    -21.10723578	     74.72011308	      1.30411199	     29.46216386	      0.00000000	      0.00000000	     -5.05454247	    -20.59840025	     -3.76526508	     89.95590351	     -7.68677726	     12.81703244	     42.48104906	     86.43587430	      0.00000000	      0.00000000	     89.96622819	    -14.64920040	     18.83712260	     47.85243484	     85.13342797	      0.00000000	      0.00000000
      4.08000000	    -30.94359296	     13.26923632	      0.13912526	     -0.32459270	      0.80710865	     -1.05819397	     32.89345858	    -20.35467538	      3.99385307	    115.92645883	      2.02329840	    -18.84901472	      0.00000000	      0.00000000	     77.33495833	      7.44155475	    -20.98598707	     74.72380330	      1.30417640	     29.61919644	      0.00000000	      0.00000000	     -4.99821669	    -20.66827230	     -3.63631770	     89.95593680	     -7.68421904	     12.82876665	     42.49932754	     86.37412567	      0.00000000	      0.00000000	     89.96616071	    -14.63347166	     18.74741367	     47.87986585	     85.31250312	      0.00000000	      0.00000000
      4.08500000	    -30.97383974	     13.16583249	      0.08368038	     -0.32466789	      0.80677029	     -1.05804251	     33.04162066	    -20.15183499	      4.05086864	    116.01449777	      2.02483497	    -18.89649809	      0.00000000	      0.00000000	     77.46485948	      7.48944909	    -20.70062858	     74.81491906	      1.30576667	     29.69621018	      0.00000000	      0.00000000	     -4.97618816	    -20.53950759	     -3.53344196	     89.95603005	     -7.68678694	     12.82496459	     42.51481774	     86.32052678	      0.00000000	      0.00000000	     89.96625577	    -14.60539669	     18.69509588	     47.93149939	     85.40776273	      0.00000000	      0.00000000
      4.09000000	    -31.01338050	     13.12959778	      0.02626044	     -0.32472289	      0.80649578	     -1.05798255	     33.21490185	    -20.02202978	      4.18755106	    116.13325348	      2.02690764	    -18.88417141	      0.00000000	      0.00000000	     77.58260228	      7.56274042	    -20.50329685	     74.85558190	      1.30647637	     29.77689585	      0.00000000	      0.00000000	     -4.93985021	    -20.47686067	     -3.40842347	     89.95609932	     -7.69594254	     12.79189249	     42.52834972	     86.36759508	      0.00000000	      0.00000000	     89.96629065	    -14.54020934	     18.64029411	     47.93187599	     85.33382644	      0.00000000	      0.00000000
      4.09500000	    -30.98539471	     13.10478631	     -0.06226783	     -0.32459691	      0.80635747	     -1.05781975	     33.28736950	    -19.90126566	      4.29612319	    116.18357978	      2.02778600	    -18.80735549	      0.00000000	      0.00000000	     77.62953342	      7.61130417	    -20.32811252	     74.93957046	      1.30794224	     30.03410314	      0.00000000	      0.00000000	     -4.97178142	    -20.43515754	     -3.31094808	     89.95612092	     -7.67689436	     12.78597525	     42.55558326	     86.33113945	      0.00000000	      0.00000000	     89.96634256	    -14.53685690	     18.59390597	     47.95637599	     85.41364052	      0.00000000	      0.00000000
      4.10000000	    -31.11931127	     12.86460085	     -0.03013724	     -0.32489181	      0.80584269	     -1.05783153	     33.44942833	    -19.58313374	      4.18557043	    116.24698544	      2.02889264	    -18.51991944	      0.00000000	      0.00000000	     77.90995820	      7.65061065	    -19.90628078	     75.06915090	      1.31020385	     29.88910671	      0.00000000	      0.00000000	     -4.84182263	    -20.13710306	     -3.29061164	     89.95639116	     -7.55185103	     13.03475610	     42.49735406	     82.74575022	      0.00000000	      0.00000000	     89.96647229	    -14.48161217	     18.78731141	     47.83646478	     82.09479659	      0.00000000	      0.00000000
      4.10500000	    -31.05993596	     12.96307581	     -0.20712111	     -0.32468266	      0.80575320	     -1.05761915	     33.56704268	    -19.56730881	      4.46375190	    116.28679817	      2.02958750	    -18.87891578	      0.00000000	      0.00000000	     77.89047924	      7.71059541	    -19.81139433	     75.08762087	      1.31052621	     30.01046378	      0.00000000	      0.00000000	     -4.89793138	    -20.23123407	     -3.08590784	     89.95634124	     -7.63969715	     12.72442011	     42.61174905	     86.38198104	      0.00000000	      0.00000000	     89.96638014	    -14.51709643	     18.53273250	     48.01485301	     85.26086381	      0.00000000	      0.00000000
      4.11000000	    -31.07456359	     12.94465902	     -0.28845491	     -0.32466647	      0.80549358	     -1.05755808	     33.67733157	    -19.47038821	      4.58630170	    116.35559268	      2.03078820	    -18.86665463	      0.00000000	      0.00000000	     77.98779921	      7.75217793	    -19.64855617	     75.17007312	      1.31196527	     30.23213156	      0.00000000	      0.00000000	     -4.88838729	    -20.17099930	     -2.96277024	     89.95632173	     -7.62253640	     12.72009503	     42.67741583	     86.24258018	      0.00000000	      0.00000000	     89.96645468	    -14.51104954	     18.45658752	     48.03993262	     85.53206827	      0.00000000	      0.00000000
      4.11500000	    -31.12619169	     12.87306956	     -0.36380668	     -0.32472086	      0.80519548	     -1.05742110	     33.81346180	    -19.31625307	      4.67017578	    116.43514856	      2.03217671	    -18.82751947	      0.00000000	      0.00000000	     78.11820249	      7.74126093	    -19.45040784	     75.27363863	      1.31377283	     30.28055269	      0.00000000	      0.00000000	     -4.83182843	    -20.08871998	     -2.83006764	     89.95632703	     -7.63342261	     12.67677916	     42.66537363	     86.35217944	      0.00000000	      0.00000000	     89.96651508	    -14.45946795	     18.44145918	     48.07088434	     85.32805401	      0.00000000	      0.00000000
      4.12000000	    -31.22857735	     12.63164391	     -0.36840516	     -0.32494089	      0.80470336	     -1.05734130	     33.91375873	    -18.98098252	      4.57103448	    116.52116078	      2.03367790	    -18.48027402	      0.00000000	      0.00000000	     78.39579685	      7.73332556	    -19.02539414	     75.48281991	      1.31742374	     30.10272879	      0.00000000	      0.00000000	     -4.71893515	    -19.79337427	     -2.75763345	     89.95654000	     -7.51453502	     12.92322253	     42.56462538	     82.89477441	      0.00000000	      0.00000000	     89.96661777	    -14.38033563	     18.62852382	     47.93999055	     82.15053457	      0.00000000	      0.00000000
      4.12500000	    -31.11341349	     12.79891485	     -0.57344315	     -0.32458524	      0.80476784	     -1.05711054	     33.94938546	    -19.04664619	      4.88568575	    116.52027509	      2.03366245	    -18.82557847	      0.00000000	      0.00000000	     78.25874455	      7.72247464	    -19.10629473	     75.46367626	      1.31708962	     30.21751067	      0.00000000	      0.00000000	     -4.83251022	    -19.97220613	     -2.55978621	     89.95637029	     -7.60961524	     12.65511991	     42.72496379	     86.31822507	      0.00000000	      0.00000000	     89.96658860	    -14.43543015	     18.34525007	     48.14125527	     85.39277455	      0.00000000	      0.00000000
      4.13000000	    -31.05001609	     12.87040822	     -0.70115269	     -0.32437691	      0.80470936	     -1.05697523	     33.97239012	    -19.06030612	      5.05022045	    116.54930127	      2.03416905	    -18.78652874	      0.00000000	      0.00000000	     78.22636465	      7.73474104	    -19.08074439	     75.51202791	      1.31793351	     30.34935864	      0.00000000	      0.00000000	     -4.88887478	    -20.04790496	     -2.40943184	     89.95631267	     -7.63010077	     12.64843513	     42.75990318	     86.24030611	      0.00000000	      0.00000000	     89.96662654	    -14.37785286	     18.32008101	     48.13952746	     85.32144483	      0.00000000	      0.00000000
      4.13500000	    -31.10525319	     12.77663073	     -0.77726145	     -0.32440111	      0.80436977	     -1.05682292	     34.07768290	    -18.89146833	      5.08127062	    116.58845550	      2.03485242	    -18.74809607	      0.00000000	      0.00000000	     78.35963158	      7.71343436	    -18.85658334	     75.59832181	      1.31943962	     30.39484987	      0.00000000	      0.00000000	     -4.82804618	    -19.93427845	     -2.29633110	     89.95633171	     -7.60841457	     12.63582004	     42.78643854	     86.27249347	      0.00000000	      0.00000000	     89.96666629	    -14.38221559	     18.29464768	     48.18550874	     85.33280352	      0.00000000	      0.00000000
